<?xml version="1.0" standalone="no"?>
<!DOCTYPE svg PUBLIC "-//W3C//DTD SVG 20010904//EN"
 "http://www.w3.org/TR/2001/REC-SVG-20010904/DTD/svg10.dtd">
<svg version="1.0" xmlns="http://www.w3.org/2000/svg"
 width="2400.000000pt" height="2400.000000pt" viewBox="0 0 2400.000000 2400.000000"
 preserveAspectRatio="xMidYMid meet">
<metadata>
Created by potrace 1.11, written by Peter Selinger 2001-2013
</metadata>
<g transform="translate(0.000000,2400.000000) scale(0.100000,-0.100000)"
fill="#000000" stroke="none">
<path d="M11195 23743 c-1225 -41 -2414 -207 -3667 -514 l-248 -61 -367 -177
c-789 -382 -1125 -591 -1486 -925 -637 -589 -1049 -1496 -1221 -2686 -60 -414
-56 -215 -56 -3038 l0 -2592 -24 -10 c-14 -5 -42 -33 -64 -62 -22 -29 -51 -64
-66 -77 -22 -20 -26 -33 -26 -75 0 -75 26 -173 65 -243 l34 -61 -9 -97 c-14
-142 -37 -213 -96 -290 -12 -16 -24 -43 -26 -59 l-3 -28 -395 200 c-1494 754
-1473 744 -1795 872 -630 251 -1096 295 -1415 135 -129 -64 -291 -210 -303
-273 -17 -82 -29 -310 -24 -427 18 -385 140 -688 377 -939 160 -168 331 -290
590 -419 291 -146 549 -238 1205 -432 557 -164 717 -215 922 -291 282 -105
506 -213 686 -332 78 -51 201 -87 817 -241 2071 -518 4138 -801 6375 -871 655
-20 1837 -11 2515 20 2114 97 4057 343 6550 830 195 38 463 90 595 115 952
183 1669 398 2210 665 465 228 788 497 971 806 139 235 201 505 179 788 l-7
99 -62 71 c-137 157 -350 294 -546 350 -238 68 -550 59 -885 -25 -304 -76
-615 -197 -1290 -502 -463 -208 -651 -287 -689 -287 -33 0 -37 4 -85 89 -143
250 -249 507 -317 769 l-34 133 0 2592 c0 2588 -2 2773 -36 3117 -76 789 -280
1439 -611 1945 -377 576 -908 992 -1768 1382 -164 75 -849 282 -1465 443
-1614 423 -3114 626 -4575 618 -192 -1 -386 -3 -430 -5z m-615 -4563 c10 -5
33 -45 50 -87 25 -60 321 -753 406 -953 9 -19 37 -84 62 -144 26 -60 52 -111
57 -113 6 -1 42 77 82 175 40 97 93 227 118 287 25 61 84 202 130 315 46 113
100 243 120 290 20 47 48 114 62 150 14 36 33 71 41 78 12 9 108 12 404 12
l388 0 0 -29 0 -28 -80 -6 c-91 -6 -133 -25 -168 -77 l-22 -33 2 -845 3 -844
38 -33 c42 -37 101 -55 176 -55 50 0 51 -1 51 -30 l0 -30 -512 2 -513 3 -3 26
c-3 26 -2 26 71 31 84 5 140 29 171 71 21 28 21 40 26 825 3 438 3 805 1 816
-2 11 -16 -11 -36 -60 -18 -44 -76 -182 -130 -309 -53 -126 -108 -255 -120
-285 -24 -58 -73 -173 -230 -545 -54 -126 -106 -250 -116 -275 -71 -179 -126
-295 -139 -295 -15 0 -58 80 -103 190 -14 33 -63 148 -110 255 -89 205 -155
359 -394 910 -175 405 -173 400 -184 400 -6 0 -9 -302 -7 -762 3 -755 3 -764
24 -809 12 -25 38 -58 57 -73 40 -30 122 -56 180 -56 36 0 38 -2 35 -27 l-3
-28 -315 -3 c-173 -1 -325 0 -337 3 -16 4 -23 13 -23 30 0 22 5 25 33 25 50 0
132 27 165 55 17 14 39 45 51 70 21 45 21 47 19 855 -3 798 -3 809 -24 836
-32 44 -90 68 -171 72 -68 4 -73 6 -73 27 0 13 6 26 13 28 24 10 758 7 777 -3z
m3182 -632 c54 -31 78 -80 78 -162 0 -78 -11 -111 -53 -154 -63 -65 -151 -62
-244 8 -78 59 -89 63 -128 50 -32 -11 -92 -67 -114 -108 -6 -11 -17 -39 -25
-63 -38 -119 -41 -150 -41 -477 l0 -324 36 -33 c27 -24 49 -35 88 -40 49 -7
52 -9 49 -34 l-3 -26 -365 0 -365 0 -3 27 c-3 22 1 27 30 33 65 14 86 32 103
87 13 43 15 130 15 542 0 462 -2 494 -20 533 -19 42 -66 73 -111 73 -14 0 -19
7 -19 30 l0 30 278 -2 277 -3 5 -140 5 -140 62 81 c92 121 185 195 283 225 54
16 141 10 182 -13z m310 -934 c133 -45 197 -207 133 -334 -58 -115 -200 -162
-320 -106 -89 41 -135 115 -135 213 1 169 161 282 322 227z m-2959 -1536 l-2
-273 -22 0 c-19 0 -26 13 -53 95 -38 118 -72 176 -132 229 -86 75 -119 86
-292 89 l-153 4 3 -849 c3 -814 4 -849 22 -880 31 -50 89 -77 181 -83 77 -5
80 -6 80 -30 l0 -25 -520 0 -520 0 0 25 c0 24 3 25 80 31 91 7 133 25 167 71
l23 33 3 853 2 854 -142 -4 c-201 -6 -267 -34 -348 -149 -40 -57 -100 -207
-100 -250 0 -14 -7 -19 -30 -19 l-30 0 0 275 0 275 893 0 892 0 -2 -272z
m2767 -595 c0 -572 4 -881 11 -906 14 -51 42 -74 105 -87 47 -10 54 -14 54
-35 0 -19 -8 -26 -37 -34 -21 -6 -46 -11 -55 -11 -10 0 -37 -5 -60 -10 -60
-15 -400 -80 -415 -80 -10 0 -13 25 -13 93 0 52 -2 96 -5 98 -2 3 -35 -25 -73
-62 -100 -98 -153 -122 -277 -127 -83 -3 -111 0 -164 18 -124 41 -218 123
-290 251 -45 81 -68 156 -88 286 -14 98 -15 129 -5 221 23 209 88 368 195 479
111 116 238 168 390 161 109 -5 159 -27 249 -107 31 -28 59 -51 62 -51 3 0 6
135 6 300 0 319 -3 344 -49 384 -12 11 -49 25 -84 31 -52 9 -63 14 -65 33 l-3
22 305 0 306 0 0 -867z m-2040 243 c265 -65 431 -248 487 -540 18 -98 13 -291
-11 -381 -44 -160 -141 -303 -261 -383 -109 -73 -175 -94 -325 -99 -146 -6
-224 9 -328 60 -151 74 -284 264 -327 467 -18 87 -19 264 -1 345 61 274 235
474 462 529 76 18 233 20 304 2z m3175 -1 c106 -27 220 -90 295 -164 53 -52
77 -86 113 -161 67 -141 82 -208 81 -375 0 -163 -15 -237 -74 -360 -110 -228
-301 -345 -565 -345 -268 0 -449 115 -562 358 -54 115 -73 206 -73 346 0 224
69 403 208 544 87 87 147 124 254 152 91 24 240 26 323 5z"/>
<path d="M13111 15555 c-45 -41 -74 -103 -97 -207 -21 -92 -24 -458 -5 -558
31 -164 93 -276 166 -300 79 -26 176 20 250 121 l45 61 0 355 0 355 -44 67
c-67 100 -131 141 -220 141 -50 0 -60 -4 -95 -35z"/>
<path d="M11635 15636 c-63 -29 -102 -92 -125 -206 -6 -30 -14 -193 -17 -361
-7 -410 8 -518 81 -597 41 -45 77 -62 127 -62 79 0 145 58 174 152 22 74 35
274 35 535 -1 269 -11 364 -50 447 -42 88 -142 129 -225 92z"/>
<path d="M14810 15639 c-32 -13 -78 -56 -95 -90 -46 -88 -76 -508 -55 -769 19
-236 40 -294 130 -349 87 -53 200 -6 245 103 9 22 23 100 31 175 16 166 18
581 3 688 -11 74 -42 159 -71 194 -41 51 -126 72 -188 48z"/>
<path d="M14712 5410 c-490 -52 -1005 -273 -1438 -618 -113 -89 -378 -348
-571 -557 l-111 -120 -244 241 c-259 256 -384 362 -594 504 -546 370 -1015
511 -1704 511 -622 1 -1036 -102 -1665 -411 -409 -201 -669 -366 -1055 -665
-991 -770 -1867 -1219 -2645 -1356 -170 -30 -459 -37 -620 -15 -385 54 -593
161 -885 456 -186 187 -230 277 -216 440 13 160 74 310 154 380 88 78 246 110
442 90 149 -14 272 -48 462 -126 182 -74 278 -99 342 -90 114 17 236 162 236
280 0 92 -48 182 -175 327 -247 280 -578 486 -899 561 -131 30 -361 36 -498
13 -493 -82 -970 -436 -1404 -1041 -148 -207 -158 -245 -158 -589 0 -194 5
-291 18 -380 89 -618 308 -1047 771 -1510 672 -673 1686 -1157 2852 -1359 247
-43 566 -74 1013 -98 318 -17 1541 -17 1835 0 455 27 652 49 945 109 730 147
1427 383 1970 665 460 239 711 427 1146 862 208 208 318 334 403 459 56 84
122 147 153 147 30 0 168 -143 317 -330 74 -91 203 -233 315 -346 357 -357
714 -609 1216 -858 1236 -613 2845 -851 4750 -700 1501 118 2486 441 3315
1086 713 555 1116 1187 1211 1903 23 175 23 488 -1 600 -43 207 -214 454 -527
760 -225 222 -446 397 -609 484 -212 113 -491 166 -744 141 -384 -38 -747
-220 -1056 -529 -164 -164 -195 -240 -178 -431 19 -227 171 -269 529 -145 323
112 444 138 640 139 176 0 232 -16 300 -90 102 -110 155 -344 119 -516 -55
-260 -428 -588 -809 -711 -150 -49 -257 -62 -495 -62 -222 0 -293 7 -490 47
-389 78 -887 269 -1260 483 -405 232 -1107 707 -1497 1012 -219 171 -430 298
-818 492 -364 182 -670 307 -878 360 -104 27 -334 66 -502 86 -156 19 -586 28
-708 15z"/>
</g>
</svg>
